%TF.GenerationSoftware,Altium Limited,Altium Designer,24.10.1 (45)*%
G04 Layer_Color=8388736*
%FSLAX25Y25*%
%MOIN*%
%TF.SameCoordinates,E3627B7C-2612-4108-9C31-D0DD13167729*%
%TF.FilePolarity,Negative*%
%TF.FileFunction,Soldermask,Top*%
%TF.Part,Single*%
G01*
G75*
%TA.AperFunction,SMDPad,CuDef*%
%ADD29R,0.06039X0.05039*%
%TA.AperFunction,ConnectorPad*%
G04:AMPARAMS|DCode=30|XSize=153.94mil|YSize=45.67mil|CornerRadius=11.52mil|HoleSize=0mil|Usage=FLASHONLY|Rotation=180.000|XOffset=0mil|YOffset=0mil|HoleType=Round|Shape=RoundedRectangle|*
%AMROUNDEDRECTD30*
21,1,0.15394,0.02264,0,0,180.0*
21,1,0.13091,0.04567,0,0,180.0*
1,1,0.02303,-0.06545,0.01132*
1,1,0.02303,0.06545,0.01132*
1,1,0.02303,0.06545,-0.01132*
1,1,0.02303,-0.06545,-0.01132*
%
%ADD30ROUNDEDRECTD30*%
%TA.AperFunction,SMDPad,CuDef*%
%ADD31R,0.06142X0.05354*%
%ADD32R,0.06039X0.05039*%
%ADD33R,0.06653X0.07441*%
%ADD34O,0.03539X0.01614*%
%ADD35R,0.03539X0.01614*%
%ADD36O,0.05039X0.01654*%
%ADD37R,0.05039X0.01654*%
%ADD38R,0.09055X0.09055*%
%TA.AperFunction,ComponentPad*%
G04:AMPARAMS|DCode=39|XSize=59.45mil|YSize=59.45mil|CornerRadius=0mil|HoleSize=0mil|Usage=FLASHONLY|Rotation=90.000|XOffset=0mil|YOffset=0mil|HoleType=Round|Shape=Octagon|*
%AMOCTAGOND39*
4,1,8,0.01486,0.02972,-0.01486,0.02972,-0.02972,0.01486,-0.02972,-0.01486,-0.01486,-0.02972,0.01486,-0.02972,0.02972,-0.01486,0.02972,0.01486,0.01486,0.02972,0.0*
%
%ADD39OCTAGOND39*%

%TA.AperFunction,ViaPad*%
%ADD40C,0.05039*%
D29*
X249606Y102625D02*
D03*
Y94225D02*
D03*
X232283Y30972D02*
D03*
Y22572D02*
D03*
X128740Y16666D02*
D03*
Y25066D02*
D03*
X128347Y86484D02*
D03*
Y78083D02*
D03*
X75197Y39895D02*
D03*
Y48294D02*
D03*
D30*
X6980Y41142D02*
D03*
Y16142D02*
D03*
Y28642D02*
D03*
X267717Y17815D02*
D03*
Y42815D02*
D03*
Y30315D02*
D03*
D31*
X75295Y85213D02*
D03*
X231890Y102165D02*
D03*
X249213Y58071D02*
D03*
X128347Y49016D02*
D03*
D32*
X75295Y93480D02*
D03*
X231890Y93898D02*
D03*
X249213Y66339D02*
D03*
X128347Y40748D02*
D03*
D33*
X38295Y78347D02*
D03*
D34*
X30520Y82185D02*
D03*
Y79626D02*
D03*
Y77067D02*
D03*
Y74508D02*
D03*
X46071Y77067D02*
D03*
Y79626D02*
D03*
Y82185D02*
D03*
D35*
Y74508D02*
D03*
D36*
X193138Y52346D02*
D03*
Y57346D02*
D03*
Y62347D02*
D03*
Y67347D02*
D03*
X173453Y52346D02*
D03*
Y57346D02*
D03*
Y62347D02*
D03*
D37*
Y67347D02*
D03*
D38*
X183295Y59847D02*
D03*
D39*
X11417Y82677D02*
D03*
Y92677D02*
D03*
D40*
X162295Y54847D02*
D03*
X230295Y66347D02*
D03*
X212295Y93846D02*
D03*
X166295D02*
D03*
X146373Y40713D02*
D03*
X160295Y22346D02*
D03*
X96795Y39847D02*
D03*
X119795Y61847D02*
D03*
X93295Y66347D02*
D03*
%TF.MD5,d5aa0d407b3f2a5e71c033118e80b02f*%
M02*
